<svg id="레이어_1" data-name="레이어 1" xmlns="http://www.w3.org/2000/svg" viewBox="0 0 1235.8 327.7"><defs><style>.cls-1{fill:#4a60a8;}.cls-2{fill:#595959;}</style></defs><title>logo</title><path class="cls-1" d="M531.7,251V91.6h32.1l41.1,85.6,41.2-85.6h32.1V251H645.2V155.6l-29.3,60.5H593.9l-29.3-60.5V251Z" transform="translate(-171.2 -11.7)"/><path class="cls-1" d="M834.6,221.1H778.8L769.5,251H732.3L790,91.6h33.3L881,251H843.8Zm-8.2-27.4-19.6-62.1L787,193.7Z" transform="translate(-171.2 -11.7)"/><path class="cls-1" d="M927.3,251V91.6H983q15.5,0,25.4,2.6a47.2,47.2,0,0,1,17.6,8.6,43.3,43.3,0,0,1,14.3,19.5q4.2,11.6,4.2,31.6v34.8q0,14.1-1.6,22.4a54.2,54.2,0,0,1-5.5,15.6,41.7,41.7,0,0,1-20,18.6q-13,5.8-34.4,5.8Zm34.4-27.4h14.9q19.9,0,26.4-7.5t7.2-30.1V156.6q0-21.9-7.2-30.1t-26.4-7.5H961.6Z" transform="translate(-171.2 -11.7)"/><path class="cls-1" d="M1109.6,91.6h34.4v99.8q0,17.5,3.4,24.1a16.9,16.9,0,0,0,7.6,8q4.8,2.3,13.5,2.3t14.3-2.7q5-2.7,7.6-9.4t2.6-22.4V91.6h34.4v99.8q0,18.3-2.1,27.2-3.9,16.6-18.6,26.4-12.7,8.6-38.2,8.6t-38.2-8.5a43.6,43.6,0,0,1-18.7-26.5q-2.1-8.8-2.1-27.2Z" transform="translate(-171.2 -11.7)"/><path class="cls-1" d="M1330.3,195.5V251H1296V91.6h54.5q19.2,0,29.1,3.5,14.3,5,20.8,16.6t6.5,31.7q0,18.1-4.8,28.2-6.1,13.1-17.8,18.5t-33.9,5.4Zm-.5-27.6h20.9q12.1,0,17.2-5.6t5.1-18.9q0-13.3-5.1-18.9t-17.2-5.6h-20.9Z" transform="translate(-171.2 -11.7)"/><path class="cls-2" d="M534.1,278.1h28.7v8.1H544v11h15.6v8.1H544v18.9h-9.9Z" transform="translate(-171.2 -11.7)"/><path class="cls-2" d="M567.2,304.9c0-10.6,4.3-15,14.8-15s14.7,4.4,14.7,15v5c0,10.6-4.3,14.9-14.8,14.9s-14.7-4.3-14.7-14.9Zm20.1.7c0-5.9-1.5-8.2-5.3-8.2s-5.4,2.3-5.4,8.2v3.6c0,5.9,1.5,8.1,5.4,8.1s5.3-2.3,5.3-8.1Z" transform="translate(-171.2 -11.7)"/><path class="cls-2" d="M604.3,290.7h7.2l1.2,2.1c2.3-2.3,3.8-2.9,6.4-2.9a14.2,14.2,0,0,1,7.5,2.3l-4.1,7.7a6.8,6.8,0,0,0-4.4-1.9c-3.1,0-4.4,3-4.4,10.1v16.1h-9.4Z" transform="translate(-171.2 -11.7)"/><path class="cls-2" d="M639.3,290.7h9.5l6.5,22.5,6.2-22.5H671L659.4,326c-4.1,11.6-5.9,13-17.8,13v-7.6c5.5.1,6.3-.5,8.1-6.1l.6-1.9Z" transform="translate(-171.2 -11.7)"/><path class="cls-2" d="M674.7,304.9c0-10.6,4.3-15,14.8-15s14.7,4.4,14.7,15v5c0,10.6-4.3,14.9-14.8,14.9s-14.7-4.3-14.7-14.9Zm20.1.7c0-5.9-1.5-8.2-5.3-8.2s-5.4,2.3-5.4,8.2v3.6c0,5.9,1.5,8.1,5.4,8.1s5.3-2.3,5.3-8.1Z" transform="translate(-171.2 -11.7)"/><path class="cls-2" d="M721.1,290.7v18c0,5.9,1.2,8.1,4.5,8.1s4.5-2.4,4.5-8.8V290.7h9.4v33.4h-6.3l-1.2-2.8c-1.8,2.5-4.2,3.5-8.5,3.5s-9.3-2.2-10.8-6.5c-.6-1.7-1-4.5-1-8.6V290.7Z" transform="translate(-171.2 -11.7)"/><path class="cls-2" d="M748.1,290.7h7.2l1.2,2.1c2.3-2.3,3.8-2.9,6.4-2.9a14.2,14.2,0,0,1,7.5,2.3l-4.1,7.7a6.8,6.8,0,0,0-4.4-1.9c-3.1,0-4.4,3-4.4,10.1v16.1h-9.4Z" transform="translate(-171.2 -11.7)"/><path class="cls-2" d="M786.8,277.6h9.4v8.8h-9.4Zm0,13.2h9.4v33.4h-9.4Z" transform="translate(-171.2 -11.7)"/><path class="cls-2" d="M805,290.7h7l.8,2.5c2.3-2.4,4.6-3.3,8.8-3.3s9.4,2.3,11,6.5c.7,1.9,1,4.3,1,8.6v19.1h-9.4v-18c0-5.9-1.3-8.2-4.7-8.2s-5,2.3-5,8.8v17.4H805Z" transform="translate(-171.2 -11.7)"/><path class="cls-2" d="M842,290.7h7l.8,2.5c2.3-2.4,4.6-3.3,8.8-3.3s9.4,2.3,11,6.5c.7,1.9,1,4.3,1,8.6v19.1h-9.4v-18c0-5.9-1.3-8.2-4.7-8.2s-5,2.3-5,8.8v17.4H842Z" transform="translate(-171.2 -11.7)"/><path class="cls-2" d="M878,304.9c0-10.6,4.3-15,14.8-15s14.7,4.4,14.7,15v5c0,10.6-4.3,14.9-14.8,14.9S878,320.6,878,310Zm20.1.7c0-5.9-1.5-8.2-5.3-8.2s-5.4,2.3-5.4,8.2v3.6c0,5.9,1.5,8.1,5.4,8.1s5.3-2.3,5.3-8.1Z" transform="translate(-171.2 -11.7)"/><path class="cls-2" d="M911.2,290.7h9.6l6.3,22.2,6.3-22.2h9.5l-11.2,33.4h-9.1Z" transform="translate(-171.2 -11.7)"/><path class="cls-2" d="M964.9,302.6c0-3.5-1.6-5.2-4.9-5.2a7.6,7.6,0,0,0-6.3,3.2l-6.5-4.5c2.9-4.1,7.5-6.2,13.7-6.2s10.5,2.1,12.2,6c.8,1.9,1.2,4.2,1.2,8.4v19.8h-7.4l-.6-1.7c-2.1,1.7-4.5,2.5-8.8,2.5-8.2,0-11.3-2.9-11.3-10.6s3-10.6,12.5-10.6h6.1Zm-5,7.3c-3.5,0-4.8,1.2-4.8,4.1s1.3,3.8,4.9,3.8,4.9-1.2,4.9-5.2v-2.7Z" transform="translate(-171.2 -11.7)"/><path class="cls-2" d="M980.1,298.2v-7.4h3.6l.6-9.4h8.8v9.4h6.6v7.4h-6.6v11.7c0,5.2,1.4,6.8,5.8,6.7h.8v7.6h-1.1c-12.5,0-15-2.6-14.9-15.3V298.2Z" transform="translate(-171.2 -11.7)"/><path class="cls-2" d="M1006,277.6h9.4v8.8H1006Zm0,13.2h9.4v33.4H1006Z" transform="translate(-171.2 -11.7)"/><path class="cls-2" d="M1021.1,290.7h9.6l6.3,22.2,6.3-22.2h9.5l-11.2,33.4h-9.1Z" transform="translate(-171.2 -11.7)"/><path class="cls-2" d="M1065.9,310.7c0,4.6,2.1,7,6.2,7s5-1,6.6-3.6l6.9,3.9c-2.8,4.9-7,6.8-14.5,6.8-10.5,0-14.6-4.6-14.6-16.1v-2.1c0-5.9.8-9.4,2.8-11.9s6.2-4.7,11.9-4.7c10.5,0,14.7,4.8,14.7,16.7v3.2h-19.9Zm11-7.2v-.8c0-3.7-2-5.9-5.6-5.9s-5.5,2.2-5.5,5.9v.8Z" transform="translate(-171.2 -11.7)"/><path class="cls-2" d="M1124.4,323.1a12.1,12.1,0,0,1-7.1,1.8c-8.7,0-12.4-4.5-12.4-15V305c0-10.6,3.7-15,12.5-15,3.7,0,6.2.8,8.3,2.6l.9-1.9h7.2v32.1c0,5.6-1,9.2-3.2,11.9s-6.8,4.6-12.1,4.6-10.6-2.2-13-6.9l7-3.9c1.5,2.6,3,3.6,5.7,3.6,4.3,0,6.1-2.4,6.2-8.2Zm-10.1-13.9c0,5.8,1.5,8.3,5.1,8.3s5-2,5-6.4v-7.2c0-4.4-1.6-6.4-5.1-6.4s-5,2.5-5,8.3Z" transform="translate(-171.2 -11.7)"/><path class="cls-2" d="M1142.4,290.7h7.2l1.2,2.1c2.3-2.3,3.8-2.9,6.4-2.9a14.2,14.2,0,0,1,7.5,2.3l-4.1,7.7a6.8,6.8,0,0,0-4.4-1.9c-3.1,0-4.4,3-4.4,10.1v16.1h-9.4Z" transform="translate(-171.2 -11.7)"/><path class="cls-2" d="M1167.5,304.9c0-10.6,4.3-15,14.8-15s14.7,4.4,14.7,15v5c0,10.6-4.3,14.9-14.8,14.9s-14.7-4.3-14.7-14.9Zm20.1.7c0-5.9-1.5-8.2-5.3-8.2s-5.4,2.3-5.4,8.2v3.6c0,5.9,1.5,8.1,5.4,8.1s5.3-2.3,5.3-8.1Z" transform="translate(-171.2 -11.7)"/><path class="cls-2" d="M1201.2,290.7h9.5l4.8,22.1,6.1-22.1h6.7l6.1,22.1,4.8-22.1h9.6l-9.8,33.4h-8.1l-5.9-19.4-5.9,19.4H1211Z" transform="translate(-171.2 -11.7)"/><path class="cls-2" d="M1253.4,298.2v-7.4h3.6l.6-9.4h8.8v9.4h6.6v7.4h-6.6v11.7c0,5.2,1.4,6.8,5.8,6.7h.8v7.6h-1.1c-12.5,0-15-2.6-14.9-15.3V298.2Z" transform="translate(-171.2 -11.7)"/><path class="cls-2" d="M1279.3,278.1h9.4V292a12.1,12.1,0,0,1,7.4-2c5.4,0,9.2,2.3,10.8,6.5.7,1.9,1,4.3,1,8.6v19.1h-9.4V305.7c0-5.4-1.4-7.7-4.8-7.7s-4.9,2.5-4.9,8.2v18h-9.4Z" transform="translate(-171.2 -11.7)"/><polygon class="cls-1" points="37.4 114.6 37.4 320.3 0 320.3 0 55.4 134 114.6 266.9 55.4 266.9 320.3 228.4 320.3 228.4 114.1 134 157.2 37.4 114.6"/><polygon class="cls-2" points="0 55.5 133.4 0 266.9 55.4 218.8 76.9 153 50 153 253.6 115.1 253.6 115.1 49.4 49.2 77.1 0 55.5"/></svg>